<svg xmlns="http://www.w3.org/2000/svg" xmlns:xlink="http://www.w3.org/1999/xlink" width="2000" zoomAndPan="magnify" viewBox="0 0 1500 1499.999933" height="2000" preserveAspectRatio="xMidYMid meet" version="1.0"><defs><clipPath id="0a7798b5cf"><path d="M 750 0 C 335.785156 0 0 335.785156 0 750 C 0 1164.214844 335.785156 1500 750 1500 C 1164.214844 1500 1500 1164.214844 1500 750 C 1500 335.785156 1164.214844 0 750 0 Z M 750 0 " clip-rule="nonzero"/></clipPath><clipPath id="c49c55a317"><path d="M 0 0 L 1500 0 L 1500 1500 L 0 1500 Z M 0 0 " clip-rule="nonzero"/></clipPath><clipPath id="5048f96282"><path d="M 750 0 C 335.785156 0 0 335.785156 0 750 C 0 1164.214844 335.785156 1500 750 1500 C 1164.214844 1500 1500 1164.214844 1500 750 C 1500 335.785156 1164.214844 0 750 0 Z M 750 0 " clip-rule="nonzero"/></clipPath><clipPath id="21a5da5ee9"><rect x="0" width="1500" y="0" height="1500"/></clipPath><clipPath id="410fc8154a"><path d="M 262.101562 262.101562 L 1237.898438 262.101562 L 1237.898438 1237.898438 L 262.101562 1237.898438 Z M 262.101562 262.101562 " clip-rule="nonzero"/></clipPath><clipPath id="d407a888b3"><path d="M 750 262.101562 C 480.539062 262.101562 262.101562 480.539062 262.101562 750 C 262.101562 1019.457031 480.539062 1237.898438 750 1237.898438 C 1019.460938 1237.898438 1237.898438 1019.457031 1237.898438 750 C 1237.898438 480.539062 1019.460938 262.101562 750 262.101562 Z M 750 262.101562 " clip-rule="nonzero"/></clipPath><clipPath id="611bb6cd14"><path d="M 0.101562 0.101562 L 975.898438 0.101562 L 975.898438 975.898438 L 0.101562 975.898438 Z M 0.101562 0.101562 " clip-rule="nonzero"/></clipPath><clipPath id="a62c454ac3"><path d="M 488 0.101562 C 218.539062 0.101562 0.101562 218.539062 0.101562 488 C 0.101562 757.457031 218.539062 975.898438 488 975.898438 C 757.460938 975.898438 975.898438 757.457031 975.898438 488 C 975.898438 218.539062 757.460938 0.101562 488 0.101562 Z M 488 0.101562 " clip-rule="nonzero"/></clipPath><clipPath id="fc3f553032"><rect x="0" width="976" y="0" height="976"/></clipPath><clipPath id="e1d0eb5980"><path d="M 1177.796875 620.789062 L 1500 620.789062 L 1500 963.476562 L 1177.796875 963.476562 Z M 1177.796875 620.789062 " clip-rule="nonzero"/></clipPath><clipPath id="adb734e673"><path d="M 0.796875 0.789062 L 323 0.789062 L 323 343.476562 L 0.796875 343.476562 Z M 0.796875 0.789062 " clip-rule="nonzero"/></clipPath><clipPath id="f039aa8cf6"><rect x="0" width="323" y="0" height="344"/></clipPath><clipPath id="951c5111e7"><path d="M 465.378906 343.394531 L 1034.628906 343.394531 L 1034.628906 1156.394531 L 465.378906 1156.394531 Z M 465.378906 343.394531 " clip-rule="nonzero"/></clipPath><clipPath id="baedac5921"><path d="M 567.765625 438.554688 L 932.234375 438.554688 L 932.234375 803.027344 L 567.765625 803.027344 Z M 567.765625 438.554688 " clip-rule="nonzero"/></clipPath><clipPath id="3996a256e6"><path d="M 750 438.554688 C 649.355469 438.554688 567.765625 520.144531 567.765625 620.789062 C 567.765625 721.4375 649.355469 803.027344 750 803.027344 C 850.644531 803.027344 932.234375 721.4375 932.234375 620.789062 C 932.234375 520.144531 850.644531 438.554688 750 438.554688 Z M 750 438.554688 " clip-rule="nonzero"/></clipPath><clipPath id="898b2b1449"><path d="M 0.765625 0.554688 L 365.234375 0.554688 L 365.234375 365.027344 L 0.765625 365.027344 Z M 0.765625 0.554688 " clip-rule="nonzero"/></clipPath><clipPath id="3b015aab88"><path d="M 183 0.554688 C 82.355469 0.554688 0.765625 82.144531 0.765625 182.789062 C 0.765625 283.4375 82.355469 365.027344 183 365.027344 C 283.644531 365.027344 365.234375 283.4375 365.234375 182.789062 C 365.234375 82.144531 283.644531 0.554688 183 0.554688 Z M 183 0.554688 " clip-rule="nonzero"/></clipPath><clipPath id="a7214bff90"><rect x="0" width="366" y="0" height="366"/></clipPath><clipPath id="6dd188d5f9"><path d="M 718 761 L 782 761 L 782 773.828125 L 718 773.828125 Z M 718 761 " clip-rule="nonzero"/></clipPath><clipPath id="768bf3c222"><path d="M 653.136719 459.578125 L 839.136719 459.578125 L 839.136719 755 L 653.136719 755 Z M 653.136719 459.578125 " clip-rule="nonzero"/></clipPath><clipPath id="a435c4a03f"><path d="M 675.503906 493 L 822.503906 493 L 822.503906 739.632812 L 675.503906 739.632812 Z M 675.503906 493 " clip-rule="nonzero"/></clipPath><clipPath id="15a33204ad"><path d="M 731.242188 750 L 768.757812 750 L 768.757812 1189.160156 L 731.242188 1189.160156 Z M 731.242188 750 " clip-rule="nonzero"/></clipPath><clipPath id="51ba31cb9b"><path d="M 0.242188 0 L 37.757812 0 L 37.757812 439.160156 L 0.242188 439.160156 Z M 0.242188 0 " clip-rule="nonzero"/></clipPath><clipPath id="d829b6ba11"><rect x="0" width="38" y="0" height="440"/></clipPath><clipPath id="bc9ffc4ac2"><path d="M 691.640625 678.105469 L 809.871094 678.105469 L 809.871094 750 L 691.640625 750 Z M 691.640625 678.105469 " clip-rule="nonzero"/></clipPath><clipPath id="b9c7de6a12"><path d="M 750.75 678.105469 C 718.105469 678.105469 691.640625 694.199219 691.640625 714.054688 C 691.640625 733.90625 718.105469 750 750.75 750 C 783.394531 750 809.859375 733.90625 809.859375 714.054688 C 809.859375 694.199219 783.394531 678.105469 750.75 678.105469 Z M 750.75 678.105469 " clip-rule="nonzero"/></clipPath><clipPath id="3a7db25b41"><path d="M 0.640625 0.105469 L 118.871094 0.105469 L 118.871094 72 L 0.640625 72 Z M 0.640625 0.105469 " clip-rule="nonzero"/></clipPath><clipPath id="8e4e794364"><path d="M 59.75 0.105469 C 27.105469 0.105469 0.640625 16.199219 0.640625 36.054688 C 0.640625 55.90625 27.105469 72 59.75 72 C 92.394531 72 118.859375 55.90625 118.859375 36.054688 C 118.859375 16.199219 92.394531 0.105469 59.75 0.105469 Z M 59.75 0.105469 " clip-rule="nonzero"/></clipPath><clipPath id="d90a82becb"><rect x="0" width="119" y="0" height="72"/></clipPath></defs><rect x="-150" width="1800" fill="#ffffff" y="-149.999993" height="1799.99992" fill-opacity="1"/><g clip-path="url(#0a7798b5cf)"><g transform="matrix(1, 0, 0, 1, 0, 0.000000000000112861)"><g clip-path="url(#21a5da5ee9)"><g clip-path="url(#c49c55a317)"><g clip-path="url(#5048f96282)"><rect x="-330" width="2160" fill="#f85412" height="2159.999904" y="-329.999985" fill-opacity="1"/></g></g></g></g></g><g clip-path="url(#410fc8154a)"><g clip-path="url(#d407a888b3)"><g transform="matrix(1, 0, 0, 1, 262, 262)"><g clip-path="url(#fc3f553032)"><g clip-path="url(#611bb6cd14)"><g clip-path="url(#a62c454ac3)"><path fill="#ffffff" d="M 0.101562 0.101562 L 975.898438 0.101562 L 975.898438 975.898438 L 0.101562 975.898438 Z M 0.101562 0.101562 " fill-opacity="1" fill-rule="nonzero"/></g></g></g></g></g></g><g clip-path="url(#e1d0eb5980)"><g transform="matrix(1, 0, 0, 1, 1177, 620)"><g clip-path="url(#f039aa8cf6)"><g clip-path="url(#adb734e673)"><path fill="#ffffff" d="M 0.796875 0.789062 L 323 0.789062 L 323 343.132812 L 0.796875 343.132812 Z M 0.796875 0.789062 " fill-opacity="1" fill-rule="nonzero"/></g></g></g></g><g clip-path="url(#951c5111e7)"><path fill="#f85412" d="M 749.996094 343.398438 C 592.847656 343.398438 465.378906 470.863281 465.378906 628.015625 C 465.378906 841.480469 749.996094 1156.59375 749.996094 1156.59375 C 749.996094 1156.59375 1034.613281 841.480469 1034.613281 628.015625 C 1034.613281 470.863281 907.148438 343.398438 749.996094 343.398438 Z M 749.996094 729.664062 C 693.886719 729.664062 648.347656 684.125 648.347656 628.015625 C 648.347656 571.90625 693.886719 526.367188 749.996094 526.367188 C 806.105469 526.367188 851.644531 571.90625 851.644531 628.015625 C 851.644531 684.125 806.105469 729.664062 749.996094 729.664062 Z M 749.996094 729.664062 " fill-opacity="1" fill-rule="nonzero"/></g><g clip-path="url(#baedac5921)"><g clip-path="url(#3996a256e6)"><g transform="matrix(1, 0, 0, 1, 567, 438)"><g clip-path="url(#a7214bff90)"><g clip-path="url(#898b2b1449)"><g clip-path="url(#3b015aab88)"><path fill="#ffffff" d="M 0.765625 0.554688 L 365.234375 0.554688 L 365.234375 365.027344 L 0.765625 365.027344 Z M 0.765625 0.554688 " fill-opacity="1" fill-rule="nonzero"/></g></g></g></g></g></g><g clip-path="url(#6dd188d5f9)"><path fill="#ffffff" d="M 749.996094 1156.542969 C 731.589844 1156.542969 716.988281 1133.460938 718.085938 1106.105469 L 735.484375 761.613281 L 764.523438 761.613281 L 781.917969 1106.070312 C 783.019531 1133.460938 768.414062 1156.542969 749.996094 1156.542969 Z M 749.996094 1156.542969 " fill-opacity="1" fill-rule="nonzero"/></g><g clip-path="url(#768bf3c222)"><path fill="#ffffff" d="M 846.859375 606.847656 C 846.859375 609.257812 846.820312 611.664062 846.742188 614.070312 C 846.664062 616.476562 846.546875 618.875 846.394531 621.273438 C 846.238281 623.671875 846.042969 626.058594 845.8125 628.441406 C 845.578125 630.824219 845.308594 633.199219 844.996094 635.558594 C 844.6875 637.921875 844.339844 640.269531 843.957031 642.609375 C 843.570312 644.945312 843.148438 647.265625 842.6875 649.570312 C 842.226562 651.875 841.730469 654.160156 841.195312 656.429688 C 840.664062 658.695312 840.09375 660.941406 839.484375 663.167969 C 838.878906 665.394531 838.238281 667.59375 837.558594 669.773438 C 836.882812 671.949219 836.167969 674.101562 835.421875 676.222656 C 834.675781 678.347656 833.894531 680.441406 833.078125 682.507812 C 832.261719 684.574219 831.414062 686.609375 830.535156 688.613281 C 829.65625 690.613281 828.742188 692.582031 827.796875 694.519531 C 826.851562 696.453125 825.878906 698.351562 824.871094 700.210938 C 823.867188 702.074219 822.832031 703.898438 821.765625 705.683594 C 820.703125 707.464844 819.609375 709.210938 818.488281 710.914062 C 817.367188 712.617188 816.21875 714.277344 815.046875 715.894531 C 813.871094 717.511719 812.671875 719.085938 811.445312 720.613281 C 810.21875 722.140625 808.972656 723.621094 807.699219 725.058594 C 806.425781 726.492188 805.128906 727.878906 803.8125 729.214844 C 802.492188 730.554688 801.152344 731.84375 799.792969 733.082031 C 798.433594 734.320312 797.054688 735.503906 795.65625 736.640625 C 794.261719 737.777344 792.84375 738.859375 791.410156 739.890625 C 789.976562 740.917969 788.53125 741.894531 787.066406 742.816406 C 785.601562 743.738281 784.121094 744.605469 782.628906 745.414062 C 781.136719 746.226562 779.632812 746.984375 778.113281 747.683594 C 776.597656 748.382812 775.070312 749.023438 773.53125 749.609375 C 771.996094 750.195312 770.449219 750.722656 768.894531 751.191406 C 767.339844 751.660156 765.777344 752.074219 764.210938 752.425781 C 762.640625 752.78125 761.070312 753.074219 759.492188 753.308594 C 757.914062 753.546875 756.332031 753.722656 754.75 753.839844 C 753.167969 753.960938 751.582031 754.019531 749.996094 754.019531 C 748.414062 754.019531 746.828125 753.960938 745.246094 753.839844 C 743.660156 753.722656 742.082031 753.546875 740.503906 753.308594 C 738.925781 753.074219 737.351562 752.78125 735.785156 752.425781 C 734.21875 752.074219 732.65625 751.660156 731.101562 751.191406 C 729.546875 750.722656 728 750.195312 726.460938 749.609375 C 724.925781 749.023438 723.398438 748.382812 721.878906 747.683594 C 720.363281 746.984375 718.859375 746.226562 717.367188 745.414062 C 715.875 744.605469 714.394531 743.738281 712.929688 742.816406 C 711.464844 741.894531 710.015625 740.917969 708.585938 739.890625 C 707.152344 738.859375 705.734375 737.777344 704.335938 736.640625 C 702.941406 735.503906 701.5625 734.320312 700.199219 733.082031 C 698.839844 731.84375 697.503906 730.554688 696.183594 729.214844 C 694.867188 727.878906 693.570312 726.492188 692.296875 725.058594 C 691.023438 723.621094 689.773438 722.140625 688.550781 720.613281 C 687.324219 719.085938 686.125 717.511719 684.949219 715.894531 C 683.773438 714.277344 682.628906 712.617188 681.507812 710.914062 C 680.386719 709.210938 679.292969 707.464844 678.226562 705.683594 C 677.164062 703.898438 676.128906 702.074219 675.121094 700.210938 C 674.117188 698.351562 673.140625 696.453125 672.199219 694.519531 C 671.253906 692.582031 670.339844 690.613281 669.460938 688.613281 C 668.578125 686.609375 667.730469 684.574219 666.917969 682.507812 C 666.101562 680.441406 665.320312 678.347656 664.574219 676.222656 C 663.828125 674.101562 663.113281 671.949219 662.4375 669.773438 C 661.757812 667.59375 661.117188 665.394531 660.507812 663.167969 C 659.902344 660.941406 659.332031 658.695312 658.796875 656.429688 C 658.265625 654.160156 657.765625 651.875 657.308594 649.570312 C 656.847656 647.265625 656.425781 644.945312 656.039062 642.609375 C 655.652344 640.269531 655.308594 637.921875 654.996094 635.558594 C 654.6875 633.199219 654.417969 630.824219 654.183594 628.441406 C 653.953125 626.058594 653.757812 623.671875 653.601562 621.273438 C 653.449219 618.875 653.332031 616.476562 653.253906 614.070312 C 653.175781 611.664062 653.136719 609.257812 653.136719 606.847656 C 653.136719 604.441406 653.175781 602.03125 653.253906 599.625 C 653.332031 597.222656 653.449219 594.820312 653.601562 592.421875 C 653.757812 590.027344 653.953125 587.636719 654.183594 585.253906 C 654.417969 582.871094 654.6875 580.5 654.996094 578.136719 C 655.308594 575.773438 655.652344 573.425781 656.039062 571.089844 C 656.425781 568.753906 656.847656 566.429688 657.308594 564.125 C 657.765625 561.820312 658.265625 559.535156 658.796875 557.269531 C 659.332031 555 659.902344 552.753906 660.507812 550.527344 C 661.117188 548.304688 661.757812 546.101562 662.4375 543.925781 C 663.113281 541.746094 663.828125 539.597656 664.574219 537.472656 C 665.320312 535.347656 666.101562 533.253906 666.917969 531.1875 C 667.730469 529.121094 668.578125 527.085938 669.460938 525.085938 C 670.339844 523.082031 671.253906 521.113281 672.199219 519.179688 C 673.140625 517.242188 674.117188 515.347656 675.121094 513.484375 C 676.128906 511.621094 677.164062 509.800781 678.226562 508.015625 C 679.292969 506.230469 680.386719 504.484375 681.507812 502.78125 C 682.628906 501.078125 683.773438 499.417969 684.949219 497.800781 C 686.125 496.183594 687.324219 494.613281 688.550781 493.082031 C 689.773438 491.554688 691.023438 490.074219 692.296875 488.640625 C 693.570312 487.203125 694.867188 485.816406 696.183594 484.480469 C 697.503906 483.140625 698.839844 481.855469 700.199219 480.617188 C 701.5625 479.378906 702.941406 478.191406 704.335938 477.054688 C 705.734375 475.917969 707.152344 474.835938 708.585938 473.808594 C 710.015625 472.777344 711.464844 471.800781 712.929688 470.878906 C 714.394531 469.957031 715.875 469.089844 717.367188 468.28125 C 718.859375 467.46875 720.363281 466.714844 721.878906 466.015625 C 723.398438 465.316406 724.925781 464.671875 726.460938 464.085938 C 728 463.503906 729.546875 462.976562 731.101562 462.503906 C 732.65625 462.035156 734.21875 461.625 735.785156 461.269531 C 737.351562 460.917969 738.925781 460.621094 740.503906 460.386719 C 742.082031 460.148438 743.660156 459.972656 745.246094 459.855469 C 746.828125 459.738281 748.414062 459.675781 749.996094 459.675781 C 751.582031 459.675781 753.167969 459.738281 754.75 459.855469 C 756.332031 459.972656 757.914062 460.148438 759.492188 460.386719 C 761.070312 460.621094 762.640625 460.917969 764.210938 461.269531 C 765.777344 461.625 767.339844 462.035156 768.894531 462.503906 C 770.449219 462.976562 771.996094 463.503906 773.53125 464.085938 C 775.070312 464.671875 776.597656 465.316406 778.113281 466.015625 C 779.632812 466.714844 781.136719 467.46875 782.628906 468.28125 C 784.121094 469.089844 785.601562 469.957031 787.066406 470.878906 C 788.53125 471.800781 789.976562 472.777344 791.410156 473.808594 C 792.84375 474.835938 794.261719 475.917969 795.65625 477.054688 C 797.054688 478.191406 798.433594 479.378906 799.792969 480.617188 C 801.152344 481.855469 802.492188 483.140625 803.8125 484.480469 C 805.128906 485.816406 806.425781 487.203125 807.699219 488.640625 C 808.972656 490.074219 810.21875 491.554688 811.445312 493.082031 C 812.671875 494.613281 813.871094 496.183594 815.046875 497.800781 C 816.21875 499.417969 817.367188 501.078125 818.488281 502.78125 C 819.609375 504.484375 820.703125 506.230469 821.765625 508.015625 C 822.832031 509.800781 823.867188 511.621094 824.871094 513.484375 C 825.878906 515.347656 826.851562 517.242188 827.796875 519.179688 C 828.742188 521.113281 829.652344 523.082031 830.535156 525.085938 C 831.414062 527.085938 832.261719 529.121094 833.078125 531.1875 C 833.894531 533.253906 834.675781 535.347656 835.421875 537.472656 C 836.167969 539.597656 836.882812 541.746094 837.558594 543.925781 C 838.238281 546.101562 838.878906 548.304688 839.484375 550.527344 C 840.09375 552.753906 840.664062 555 841.195312 557.269531 C 841.730469 559.535156 842.226562 561.820312 842.6875 564.125 C 843.148438 566.429688 843.570312 568.753906 843.957031 571.089844 C 844.339844 573.425781 844.6875 575.773438 844.996094 578.136719 C 845.308594 580.5 845.578125 582.871094 845.8125 585.253906 C 846.042969 587.636719 846.238281 590.027344 846.394531 592.421875 C 846.546875 594.820312 846.664062 597.222656 846.742188 599.625 C 846.820312 602.03125 846.859375 604.441406 846.859375 606.847656 Z M 846.859375 606.847656 " fill-opacity="1" fill-rule="nonzero"/></g><path fill="#ffffff" d="M 731.230469 746.417969 L 768.765625 746.417969 L 768.765625 757.5625 C 768.765625 757.824219 768.742188 758.085938 768.6875 758.34375 C 768.636719 758.601562 768.5625 758.855469 768.460938 759.097656 C 768.359375 759.339844 768.238281 759.570312 768.089844 759.789062 C 767.945312 760.007812 767.777344 760.210938 767.589844 760.398438 C 767.40625 760.585938 767.203125 760.75 766.984375 760.898438 C 766.765625 761.042969 766.535156 761.167969 766.289062 761.269531 C 766.046875 761.367188 765.796875 761.445312 765.539062 761.496094 C 765.28125 761.546875 765.019531 761.574219 764.753906 761.574219 L 735.238281 761.574219 C 734.976562 761.574219 734.714844 761.546875 734.457031 761.496094 C 734.199219 761.445312 733.949219 761.367188 733.703125 761.269531 C 733.460938 761.167969 733.230469 761.042969 733.011719 760.898438 C 732.792969 760.75 732.589844 760.585938 732.402344 760.398438 C 732.21875 760.210938 732.050781 760.007812 731.90625 759.789062 C 731.757812 759.570312 731.636719 759.339844 731.535156 759.097656 C 731.433594 758.855469 731.359375 758.601562 731.304688 758.34375 C 731.253906 758.085938 731.230469 757.824219 731.230469 757.5625 Z M 731.230469 746.417969 " fill-opacity="1" fill-rule="nonzero"/><g clip-path="url(#a435c4a03f)"><path fill="#ff5400" d="M 771.695312 495.160156 C 773.289062 496.683594 774.6875 503.496094 774.957031 505.90625 C 780.144531 552.53125 775.710938 602.570312 780.296875 649.132812 C 780.808594 654.300781 782.640625 661.15625 789.144531 660.984375 C 796.726562 660.785156 797.535156 648.570312 797.9375 642.902344 C 800.304688 609.460938 798.046875 572.828125 798.945312 538.976562 C 799.214844 528.703125 798.976562 507.644531 801.308594 498.746094 C 802.878906 492.761719 807.675781 493.691406 809.703125 499.210938 C 813.117188 508.507812 815.328125 532.273438 816.632812 543.183594 C 820.183594 572.863281 821.777344 602.734375 822.835938 632.5625 C 823.71875 657.414062 828.449219 691.765625 816.460938 714.410156 C 801.035156 743.558594 773.09375 738.832031 767.945312 781.21875 C 763.5625 817.320312 767.347656 867.824219 769.898438 904.703125 C 774.324219 968.757812 786.378906 1031.40625 792.738281 1094.847656 C 796.296875 1130.40625 801.527344 1188.046875 749.636719 1187.820312 C 704.027344 1187.621094 703.890625 1140.507812 706.527344 1107.316406 C 712.671875 1029.953125 727.527344 955.503906 731.464844 876.675781 C 732.96875 846.558594 739.339844 780.332031 723.972656 755.316406 C 711.683594 735.316406 688.816406 733.019531 680.066406 705.71875 C 671.515625 679.046875 677.132812 613.761719 679.515625 583.695312 C 681.050781 564.328125 684.203125 515.386719 690.621094 499.226562 C 692.820312 493.703125 696.929688 492.648438 699.015625 498.722656 C 702.5625 550.59375 700.195312 603.109375 703.921875 654.871094 C 705.546875 661.695312 715.074219 663.449219 718.191406 656.65625 C 719.078125 654.71875 719.765625 650.351562 720.007812 648.082031 C 724.859375 601.910156 720.042969 552.046875 725.238281 505.78125 C 726.160156 497.554688 731.933594 486.546875 735.792969 499.351562 C 737.050781 503.535156 737.34375 513.234375 737.675781 518.242188 C 739.511719 545.890625 738.808594 573.734375 739.722656 601.386719 C 740.261719 617.742188 739.585938 635.996094 741.9375 652.164062 C 743.660156 664.015625 756.636719 664.109375 758.378906 651.125 C 761.730469 626.128906 759.5625 594.945312 760.503906 569.09375 C 761.234375 549.097656 760.875 523.011719 763.671875 503.699219 C 764.226562 499.898438 766.730469 490.390625 771.695312 495.148438 Z M 771.695312 495.160156 " fill-opacity="1" fill-rule="nonzero"/></g><g clip-path="url(#15a33204ad)"><g transform="matrix(1, 0, 0, 1, 731, 750)"><g clip-path="url(#d829b6ba11)"><g clip-path="url(#51ba31cb9b)"><path fill="#ffffff" d="M 0.242188 0 L 37.757812 0 L 37.757812 439.191406 L 0.242188 439.191406 Z M 0.242188 0 " fill-opacity="1" fill-rule="nonzero"/></g></g></g></g><g clip-path="url(#bc9ffc4ac2)"><g clip-path="url(#b9c7de6a12)"><g transform="matrix(1, 0, 0, 1, 691, 678)"><g clip-path="url(#d90a82becb)"><g clip-path="url(#3a7db25b41)"><g clip-path="url(#8e4e794364)"><path fill="#ff5400" d="M 0.640625 0.105469 L 118.871094 0.105469 L 118.871094 72 L 0.640625 72 Z M 0.640625 0.105469 " fill-opacity="1" fill-rule="nonzero"/></g></g></g></g></g></g></svg>